HIERARCHY
ROOT Hips
{
  OFFSET 86.0254 94.8051 24.2169
  CHANNELS 6 Xposition Yposition Zposition Zrotation Xrotation Yrotation
  JOINT spine
  {
    OFFSET 0 7.80059 0.448573
    CHANNELS 3 Zrotation Xrotation Yrotation
    JOINT spine1
    {
      OFFSET 0 10.1364 0
      CHANNELS 3 Zrotation Xrotation Yrotation
      JOINT spine2
      {
        OFFSET 0 9.71251 0
        CHANNELS 3 Zrotation Xrotation Yrotation
        JOINT Neck
        {
          OFFSET 0 24.9361 1.18887
          CHANNELS 3 Zrotation Xrotation Yrotation
          JOINT Head
          {
            OFFSET 0 7.53384 0
            CHANNELS 3 Zrotation Xrotation Yrotation
            End Site
            {
              OFFSET 0 18.2361 -6.01402
            }
          }
        }
        JOINT RightShoulder
        {
          OFFSET -4.08965 10.4888 -0.569457
          CHANNELS 3 Zrotation Xrotation Yrotation
          JOINT RightArm
          {
            OFFSET 0 13.757 0
            CHANNELS 3 Zrotation Xrotation Yrotation
            JOINT RightArmRoll
            {
              OFFSET 0 6.94478 0
              CHANNELS 3 Zrotation Xrotation Yrotation
              JOINT RightForeArm
              {
                OFFSET 0 20.2277 0
                CHANNELS 3 Zrotation Xrotation Yrotation
                JOINT RightForeArmRoll
                {
                  OFFSET 0 7.79312 0
                  CHANNELS 3 Zrotation Xrotation Yrotation
                  JOINT RightHand
                  {
                    OFFSET 0 15.6391 0
                    CHANNELS 3 Zrotation Xrotation Yrotation
                    End Site
                    {
                      OFFSET 0 0 0
                    }
                  }
                }
              }
            }
          }
        }
        JOINT LeftShoulder
        {
          OFFSET 4.08965 10.4888 -0.569457
          CHANNELS 3 Zrotation Xrotation Yrotation
          JOINT LeftArm
          {
            OFFSET 0 13.757 0
            CHANNELS 3 Zrotation Xrotation Yrotation
            JOINT LeftArmRoll
            {
              OFFSET 0 6.94478 0
              CHANNELS 3 Zrotation Xrotation Yrotation
              JOINT LeftForeArm
              {
                OFFSET 0 20.2277 0
                CHANNELS 3 Zrotation Xrotation Yrotation
                JOINT LeftForeArmRoll
                {
                  OFFSET 0 7.79312 0
                  CHANNELS 3 Zrotation Xrotation Yrotation
                  JOINT LeftHand
                  {
                    OFFSET 0 15.6391 0
                    CHANNELS 3 Zrotation Xrotation Yrotation
                    End Site
                    {
                      OFFSET 0 0 0
                    }
                  }
                }
              }
            }
          }
        }
      }
    }
  }
  JOINT RightUpLeg
  {
    OFFSET -6.91416 -1.26788 -1.06358
    CHANNELS 3 Zrotation Xrotation Yrotation
    JOINT RightUpLegRoll
    {
      OFFSET 0 18.3378 0
      CHANNELS 3 Zrotation Xrotation Yrotation
      JOINT RightLeg
      {
        OFFSET 0 -22.7085 0
        CHANNELS 3 Zrotation Xrotation Yrotation
        JOINT RightLegRoll
        {
          OFFSET 0 22.7828 0
          CHANNELS 3 Zrotation Xrotation Yrotation
          JOINT RightFoot
          {
            OFFSET 0 18.9629 0
            CHANNELS 3 Zrotation Xrotation Yrotation
            JOINT RightToeBase
            {
              OFFSET 0 15.852 0
              CHANNELS 3 Zrotation Xrotation Yrotation
              End Site
              {
                OFFSET 0.00671906 7.67701 -0.884892
              }
            }
          }
        }
      }
    }
  }
  JOINT LeftUpLeg
  {
    OFFSET 6.91416 -1.26788 -1.06358
    CHANNELS 3 Zrotation Xrotation Yrotation
    JOINT LeftUpLegRoll
    {
      OFFSET 0 18.3379 0
      CHANNELS 3 Zrotation Xrotation Yrotation
      JOINT LeftLeg
      {
        OFFSET 0 22.7084 0
        CHANNELS 3 Zrotation Xrotation Yrotation
        JOINT LeftLegRoll
        {
          OFFSET 0 22.9934 0
          CHANNELS 3 Zrotation Xrotation Yrotation
          JOINT LeftFoot
          {
            OFFSET 0 18.7522 0
            CHANNELS 3 Zrotation Xrotation Yrotation
            JOINT LeftToeBase
            {
              OFFSET 0 15.852 0
              CHANNELS 3 Zrotation Xrotation Yrotation
              End Site
              {
                OFFSET -0.030112 7.67701 -0.884893
              }
            }
          }
        }
      }
    }
  }
}
MOTION
Frames: 7
Frame Time: 0.00208333
49.6497 93.7106 15.4315 1.462 -2.95276 6.9415 -0.216341 2.11428 0.162549 -0.463443 8.23066 0.344962 -0.468923 9.87571 0.353529 -19.969 15.4558 14.1279 9.90733 -5.84045 9.85194 42.292 -4.71595 -1.67607 162.038 34.7831 -103.806 3.27259e-006 -2.38949e-005 8.67255e-006 45.631 60.265 -25.5631 -1.37388e-006 1.97678e-005 -3 8.02936 -4.95118 0.697348 -67.4802 0.405228 0.840806 -91.4191 10.4957 -7.93661 2.6631e-005 8.21229e-007 1.49955e-006 -9.23977 33.7199 4.74086 -1.13793e-005 -3.31444e-006 3 -8.02919 -4.9514 -0.697654 -176.959 7.81079 -2.81028 180 7.01486e-015 178.684 178.044 17.003 179.763 -6.50742e-006 2.67065e-007 0.678603 -27.5846 71.8368 24.03 8.12859 25.2348 -3.48193 -178.136 6.82106 4.86449 4.54188e-006 -4.6773e-006 -1.06798 -5.30775 -14.7916 -0.339807 4.359e-006 -6.79981e-007 -0.193443 20.7835 69.8466 -21.2362 -8.13925 25.2317 3.48829 
49.6498 93.7049 15.4348 1.4786 -2.94207 7.00868 -0.21514 2.11535 0.165331 -0.45974 8.23281 0.351582 -0.465291 9.87786 0.360099 -19.8944 15.5029 14.1646 9.80185 -5.93905 9.89302 42.3991 -4.72148 -1.68957 161.775 34.7807 -103.733 3.27259e-006 -2.38949e-005 8.67255e-006 45.5124 60.478 -25.6071 -1.37388e-006 1.97678e-005 -3 8.02936 -4.95118 0.697348 -67.4611 0.403327 0.839526 -91.3824 10.4651 -7.88443 2.6631e-005 8.21229e-007 1.49955e-006 -9.27304 33.8872 4.77611 -1.13793e-005 -3.31444e-006 3 -8.02919 -4.9514 -0.697654 -176.987 7.85355 -2.78852 180 7.01486e-015 178.684 178.034 17.0847 179.766 -6.50742e-006 2.67065e-007 0.681362 -27.6153 71.8624 24.0644 8.12859 25.2348 -3.48193 -178.145 6.86724 4.85858 4.54188e-006 -4.6773e-006 -1.06631 -5.31083 -14.8249 -0.341095 4.359e-006 -6.79981e-007 -0.19372 20.7321 69.8182 -21.2065 -8.13911 25.2293 3.48642 
49.6695 93.7078 15.4572 1.49504 -2.93141 7.0751 -0.214023 2.11633 0.168038 -0.456153 8.23479 0.358111 -0.461773 9.87984 0.36658 -19.8209 15.5507 14.2011 9.69805 -6.03798 9.93382 42.5056 -4.72639 -1.70258 161.513 34.7778 -103.665 3.27259e-006 -2.38949e-005 8.67255e-006 45.397 60.6937 -25.6554 -1.37388e-006 1.97678e-005 -3 8.02936 -4.95118 0.697348 -67.4433 0.401276 0.838475 -91.3442 10.4336 -7.83208 2.6631e-005 8.21229e-007 1.49955e-006 -9.30746 34.0546 4.81188 -1.13793e-005 -3.31444e-006 3 -8.02919 -4.9514 -0.697654 -177.015 7.89665 -2.76699 180 7.01486e-015 178.684 178.025 17.1668 179.769 -6.50742e-006 2.67065e-007 0.684145 -27.6464 71.8882 24.0991 8.12859 25.2348 -3.48193 -178.154 6.91239 4.85335 4.54188e-006 -4.6773e-006 -1.06466 -5.31382 -14.856 -0.342358 4.359e-006 -6.79981e-007 -0.193933 20.6823 69.7917 -21.1788 -8.13889 25.2256 3.4836 
49.6632 93.7027 15.4519 1.51136 -2.92075 7.14097 -0.212967 2.11725 0.170692 -0.452646 8.23664 0.364576 -0.458335 9.88169 0.372999 -19.7483 15.5991 14.2374 9.59546 -6.13714 9.97443 42.6117 -4.73087 -1.71522 161.252 34.7745 -103.6 3.27259e-006 -2.38949e-005 8.67255e-006 45.2843 60.9113 -25.7072 -1.37388e-006 1.97678e-005 -3 8.02936 -4.95118 0.697348 -67.4263 0.39912 0.837584 -91.3049 10.4015 -7.77963 2.6631e-005 8.21229e-007 1.49955e-006 -9.34276 34.222 4.84807 -1.13793e-005 -3.31444e-006 3 -8.02919 -4.9514 -0.697654 -177.043 7.94 -2.74561 180 7.01486e-015 178.684 178.015 17.2493 179.773 -6.50742e-006 2.67064e-007 0.686947 -27.6779 71.9141 24.1341 8.12859 25.2348 -3.48193 -178.163 6.95681 4.84862 4.54188e-006 -4.6773e-006 -1.06304 -5.31676 -14.8856 -0.343604 4.359e-006 -6.79981e-007 -0.194102 20.6336 69.7665 -21.1524 -8.13862 25.2212 3.48012 
49.6699 93.6914 15.4559 1.5276 -2.91011 7.20653 -0.211944 2.11814 0.173316 -0.449187 8.23843 0.371004 -0.454944 9.88348 0.37938 -19.6762 15.6477 14.2736 9.49363 -6.23641 10.015 42.7175 -4.7351 -1.72766 160.991 34.771 -103.538 3.27259e-006 -2.38949e-005 8.67255e-006 45.1735 61.1299 -25.7614 -1.37388e-006 1.97678e-005 -3 8.02936 -4.95118 0.697348 -67.4098 0.396903 0.836786 -91.265 10.3689 -7.72711 2.6631e-005 8.21229e-007 1.49955e-006 -9.37869 34.3894 4.8846 -1.13793e-005 -3.31444e-006 3 -8.02919 -4.9514 -0.697654 -177.07 7.98348 -2.72432 180 7.01486e-015 178.684 178.005 17.332 179.776 -6.50742e-006 2.67064e-007 0.689758 -27.7096 71.9402 24.1694 8.12859 25.2348 -3.48193 -178.172 7.0008 4.84417 4.54188e-006 -4.6773e-006 -1.06143 -5.31967 -14.9144 -0.34484 4.359e-006 -6.79981e-007 -0.194245 20.5855 69.7421 -21.1268 -8.13832 25.2162 3.47626 
49.6777 93.6916 15.462 1.5438 -2.89946 7.27201 -0.210931 2.11901 0.175931 -0.44574 8.24019 0.377422 -0.451567 9.88524 0.385753 -19.6043 15.6964 14.3098 9.39212 -6.33571 10.0555 42.8233 -4.73927 -1.74004 160.731 34.7673 -103.475 3.27259e-006 -2.38949e-005 8.67255e-006 45.0639 61.3488 -25.8172 -1.37388e-006 1.97678e-005 -3 8.02936 -4.95118 0.697348 -67.3935 0.394669 0.836013 -91.2249 10.3363 -7.67459 2.6631e-005 8.21229e-007 1.49955e-006 -9.41497 34.5567 4.92135 -1.13793e-005 -3.31444e-006 3 -8.02919 -4.9514 -0.697654 -177.098 8.02701 -2.70305 180 7.01486e-015 178.684 177.996 17.4148 179.779 -6.50742e-006 2.67064e-007 0.692572 -27.7414 71.9662 24.2047 8.12859 25.2348 -3.48193 -178.181 7.04467 4.8398 4.54188e-006 -4.6773e-006 -1.05982 -5.32257 -14.9429 -0.346074 4.359e-006 -6.79981e-007 -0.19438 20.5376 69.7179 -21.1016 -8.13801 25.2111 3.47229 
49.686 93.6835 15.4579 1.56 -2.88881 7.33763 -0.209903 2.11991 0.178561 -0.442273 8.24199 0.383857 -0.448168 9.88704 0.392141 -19.5322 15.745 14.3461 9.29046 -6.4349 10.0961 42.9291 -4.74354 -1.75252 160.471 34.7636 -103.412 3.27259e-006 -2.38949e-005 8.67255e-006 44.9547 61.5672 -25.8735 -1.37388e-006 1.97678e-005 -3 8.02936 -4.95118 0.697348 -67.377 0.392463 0.835198 -91.1849 10.3038 -7.62211 2.6631e-005 8.21229e-007 1.49955e-006 -9.45135 34.724 4.95823 -1.13793e-005 -3.31444e-006 3 -8.02919 -4.9514 -0.697654 -177.125 8.07047 -2.68174 180 7.01486e-015 178.684 177.986 17.4974 179.782 -6.50742e-006 2.67065e-007 0.695381 -27.7733 71.9922 24.2402 8.12859 25.2348 -3.48193 -178.19 7.08874 4.83531 4.54188e-006 -4.6773e-006 -1.0582 -5.32548 -14.9718 -0.347313 4.359e-006 -6.79981e-007 -0.194528 20.4896 69.6933 -21.076 -8.13771 25.2062 3.46849 
